<svg width="74" height="21" viewBox="0 0 74 21" fill="none" xmlns="http://www.w3.org/2000/svg">
<path d="M5.3125 20.3945V18.0391C4.27344 18.0156 3.34375 17.918 2.52344 17.7461C1.71094 17.5664 0.96875 17.3281 0.296875 17.0312V13.9375C0.960938 14.2578 1.75391 14.5508 2.67578 14.8164C3.59766 15.0742 4.47656 15.2305 5.3125 15.2852V11.6523C4.07812 11.168 3.08984 10.6992 2.34766 10.2461C1.61328 9.78516 1.08203 9.27734 0.753906 8.72266C0.433594 8.16016 0.273438 7.48828 0.273438 6.70703C0.273438 5.91016 0.484375 5.22266 0.90625 4.64453C1.33594 4.05859 1.92969 3.58984 2.6875 3.23828C3.44531 2.88672 4.32031 2.66797 5.3125 2.58203V0.789062H6.91797V2.53516C7.82422 2.56641 8.66797 2.67188 9.44922 2.85156C10.2383 3.02344 11.0117 3.27734 11.7695 3.61328L10.668 6.35547C10.0273 6.08984 9.38281 5.88281 8.73438 5.73438C8.09375 5.58594 7.48828 5.48828 6.91797 5.44141V8.89844C7.78516 9.21875 8.60938 9.56641 9.39062 9.94141C10.1719 10.3164 10.8086 10.793 11.3008 11.3711C11.793 11.9492 12.0391 12.707 12.0391 13.6445C12.0391 14.8086 11.6133 15.7852 10.7617 16.5742C9.91797 17.3633 8.63672 17.8359 6.91797 17.9922V20.3945H5.3125ZM6.91797 15.2031C7.46484 15.1094 7.86719 14.9492 8.125 14.7227C8.38281 14.4883 8.51172 14.1875 8.51172 13.8203C8.51172 13.6016 8.45312 13.4062 8.33594 13.2344C8.21875 13.0625 8.03906 12.9023 7.79688 12.7539C7.5625 12.5977 7.26953 12.4414 6.91797 12.2852V15.2031ZM5.3125 8.24219V5.48828C4.99219 5.53516 4.71875 5.61328 4.49219 5.72266C4.26562 5.82422 4.09375 5.95703 3.97656 6.12109C3.85938 6.28516 3.80078 6.48047 3.80078 6.70703C3.80078 6.93359 3.85156 7.13281 3.95312 7.30469C4.0625 7.47656 4.22656 7.63672 4.44531 7.78516C4.67188 7.93359 4.96094 8.08594 5.3125 8.24219ZM22.8906 19H19.2695V9.08594C19.2695 8.8125 19.2734 8.47656 19.2812 8.07812C19.2891 7.67188 19.3008 7.25781 19.3164 6.83594C19.332 6.40625 19.3477 6.01953 19.3633 5.67578C19.2773 5.77734 19.1016 5.95312 18.8359 6.20312C18.5781 6.44531 18.3359 6.66406 18.1094 6.85938L16.1406 8.44141L14.3945 6.26172L19.9141 1.86719H22.8906V19ZM39.6484 19H27.6719V16.4805L31.9727 12.1328C32.8398 11.2422 33.5352 10.5 34.0586 9.90625C34.5898 9.30469 34.9727 8.75781 35.207 8.26562C35.4492 7.77344 35.5703 7.24609 35.5703 6.68359C35.5703 6.00391 35.3789 5.49609 34.9961 5.16016C34.6211 4.81641 34.1172 4.64453 33.4844 4.64453C32.8203 4.64453 32.1758 4.79688 31.5508 5.10156C30.9258 5.40625 30.2734 5.83984 29.5938 6.40234L27.625 4.07031C28.1172 3.64844 28.6367 3.25 29.1836 2.875C29.7383 2.5 30.3789 2.19922 31.1055 1.97266C31.8398 1.73828 32.7188 1.62109 33.7422 1.62109C34.8672 1.62109 35.832 1.82422 36.6367 2.23047C37.4492 2.63672 38.0742 3.19141 38.5117 3.89453C38.9492 4.58984 39.168 5.37891 39.168 6.26172C39.168 7.20703 38.9805 8.07031 38.6055 8.85156C38.2305 9.63281 37.6836 10.4062 36.9648 11.1719C36.2539 11.9375 35.3945 12.7852 34.3867 13.7148L32.1836 15.7891V15.9531H39.6484V19ZM41.8164 17.3242C41.8164 16.5898 42.0156 16.0742 42.4141 15.7773C42.8203 15.4805 43.3086 15.332 43.8789 15.332C44.4336 15.332 44.9102 15.4805 45.3086 15.7773C45.7148 16.0742 45.918 16.5898 45.918 17.3242C45.918 18.0273 45.7148 18.5352 45.3086 18.8477C44.9102 19.1602 44.4336 19.3164 43.8789 19.3164C43.3086 19.3164 42.8203 19.1602 42.4141 18.8477C42.0156 18.5352 41.8164 18.0273 41.8164 17.3242ZM60.1328 10.4336C60.1328 11.8164 60.0234 13.0508 59.8047 14.1367C59.5938 15.2227 59.25 16.1445 58.7734 16.9023C58.3047 17.6602 57.6875 18.2383 56.9219 18.6367C56.1562 19.0352 55.2266 19.2344 54.1328 19.2344C52.7578 19.2344 51.6289 18.8867 50.7461 18.1914C49.8633 17.4883 49.2109 16.4805 48.7891 15.168C48.3672 13.8477 48.1562 12.2695 48.1562 10.4336C48.1562 8.58203 48.3477 7 48.7305 5.6875C49.1211 4.36719 49.7539 3.35547 50.6289 2.65234C51.5039 1.94922 52.6719 1.59766 54.1328 1.59766C55.5 1.59766 56.625 1.94922 57.5078 2.65234C58.3984 3.34766 59.0586 4.35547 59.4883 5.67578C59.918 6.98828 60.1328 8.57422 60.1328 10.4336ZM51.7539 10.4336C51.7539 11.7383 51.8242 12.8281 51.9648 13.7031C52.1133 14.5703 52.3594 15.2227 52.7031 15.6602C53.0469 16.0977 53.5234 16.3164 54.1328 16.3164C54.7344 16.3164 55.207 16.1016 55.5508 15.6719C55.9023 15.2344 56.1523 14.582 56.3008 13.7148C56.4492 12.8398 56.5234 11.7461 56.5234 10.4336C56.5234 9.12891 56.4492 8.03906 56.3008 7.16406C56.1523 6.28906 55.9023 5.63281 55.5508 5.19531C55.207 4.75 54.7344 4.52734 54.1328 4.52734C53.5234 4.52734 53.0469 4.75 52.7031 5.19531C52.3594 5.63281 52.1133 6.28906 51.9648 7.16406C51.8242 8.03906 51.7539 9.12891 51.7539 10.4336ZM73.8672 10.4336C73.8672 11.8164 73.7578 13.0508 73.5391 14.1367C73.3281 15.2227 72.9844 16.1445 72.5078 16.9023C72.0391 17.6602 71.4219 18.2383 70.6562 18.6367C69.8906 19.0352 68.9609 19.2344 67.8672 19.2344C66.4922 19.2344 65.3633 18.8867 64.4805 18.1914C63.5977 17.4883 62.9453 16.4805 62.5234 15.168C62.1016 13.8477 61.8906 12.2695 61.8906 10.4336C61.8906 8.58203 62.082 7 62.4648 5.6875C62.8555 4.36719 63.4883 3.35547 64.3633 2.65234C65.2383 1.94922 66.4062 1.59766 67.8672 1.59766C69.2344 1.59766 70.3594 1.94922 71.2422 2.65234C72.1328 3.34766 72.793 4.35547 73.2227 5.67578C73.6523 6.98828 73.8672 8.57422 73.8672 10.4336ZM65.4883 10.4336C65.4883 11.7383 65.5586 12.8281 65.6992 13.7031C65.8477 14.5703 66.0938 15.2227 66.4375 15.6602C66.7812 16.0977 67.2578 16.3164 67.8672 16.3164C68.4688 16.3164 68.9414 16.1016 69.2852 15.6719C69.6367 15.2344 69.8867 14.582 70.0352 13.7148C70.1836 12.8398 70.2578 11.7461 70.2578 10.4336C70.2578 9.12891 70.1836 8.03906 70.0352 7.16406C69.8867 6.28906 69.6367 5.63281 69.2852 5.19531C68.9414 4.75 68.4688 4.52734 67.8672 4.52734C67.2578 4.52734 66.7812 4.75 66.4375 5.19531C66.0938 5.63281 65.8477 6.28906 65.6992 7.16406C65.5586 8.03906 65.4883 9.12891 65.4883 10.4336Z" fill="#BB2339"/>
</svg>
